<svg id="Layer_1" data-name="Layer 1" xmlns="http://www.w3.org/2000/svg" xmlns:xlink="http://www.w3.org/1999/xlink" viewBox="0 0 1596.92 1034.08"><defs><style>.cls-1,.cls-13,.cls-15,.cls-4{fill:none;}.cls-1{stroke:#f93;}.cls-1,.cls-12,.cls-13,.cls-15,.cls-4{stroke-miterlimit:10;}.cls-1,.cls-15,.cls-4{stroke-width:8px;}.cls-2{fill:url(#linear-gradient);}.cls-3{fill:url(#linear-gradient-2);}.cls-4{stroke:#999;}.cls-5{fill:url(#linear-gradient-3);}.cls-6{fill:url(#linear-gradient-4);}.cls-7{fill:#01509d;}.cls-8{fill:#3cab42;}.cls-9{fill:#f93;}.cls-10{fill:#045aa0;}.cls-11{fill:#e5e5e8;}.cls-12{fill:#069;}.cls-12,.cls-13{stroke:#069;}.cls-14{fill:#0b5e8b;}.cls-15{stroke:#6c6;}.cls-16{fill:url(#linear-gradient-5);}.cls-17{fill:url(#linear-gradient-6);}</style><linearGradient id="linear-gradient" x1="699.85" y1="436.8" x2="954.83" y2="436.8" gradientTransform="translate(-126.32 200.93)" gradientUnits="userSpaceOnUse"><stop offset="0.29" stop-color="#f93"/><stop offset="1" stop-color="#fff" stop-opacity="0"/><stop offset="1" stop-color="#fff" stop-opacity="0.01"/><stop offset="1" stop-color="#fff" stop-opacity="0.04"/><stop offset="1" stop-color="#fff" stop-opacity="0.1"/><stop offset="1" stop-color="#fff" stop-opacity="0.18"/><stop offset="1" stop-color="#fff" stop-opacity="0.28"/><stop offset="1" stop-color="#fff" stop-opacity="0.4"/><stop offset="1" stop-color="#fff" stop-opacity="0.5"/></linearGradient><linearGradient id="linear-gradient-2" x1="700.29" y1="330.76" x2="955.26" y2="330.76" gradientTransform="translate(-232.8 306.98)" xlink:href="#linear-gradient"/><linearGradient id="linear-gradient-3" x1="875.4" y1="-161.21" x2="952.15" y2="-161.21" gradientTransform="matrix(0, 5.61, -0.21, -0.02, 859.76, -4573.01)" gradientUnits="userSpaceOnUse"><stop offset="0.15" stop-color="#999"/><stop offset="1" stop-color="#fff" stop-opacity="0"/><stop offset="1" stop-color="#fff" stop-opacity="0.01"/><stop offset="1" stop-color="#fff" stop-opacity="0.04"/><stop offset="1" stop-color="#fff" stop-opacity="0.1"/><stop offset="1" stop-color="#fff" stop-opacity="0.18"/><stop offset="1" stop-color="#fff" stop-opacity="0.28"/><stop offset="1" stop-color="#fff" stop-opacity="0.4"/><stop offset="1" stop-color="#fff" stop-opacity="0.5"/></linearGradient><linearGradient id="linear-gradient-4" x1="878.36" y1="550.62" x2="955.12" y2="550.62" gradientTransform="matrix(0, 5.61, -0.21, -0.02, 1152.94, -4573.34)" xlink:href="#linear-gradient-3"/><linearGradient id="linear-gradient-5" x1="1089.89" y1="578.49" x2="1140.06" y2="578.49" gradientTransform="matrix(0, 4.11, -0.19, -0.02, 1326.1, -3973.58)" gradientUnits="userSpaceOnUse"><stop offset="0.29" stop-color="#6c6"/><stop offset="1" stop-color="#fff" stop-opacity="0"/><stop offset="1" stop-color="#fff" stop-opacity="0.01"/><stop offset="1" stop-color="#fff" stop-opacity="0.04"/><stop offset="1" stop-color="#fff" stop-opacity="0.1"/><stop offset="1" stop-color="#fff" stop-opacity="0.18"/><stop offset="1" stop-color="#fff" stop-opacity="0.28"/><stop offset="1" stop-color="#fff" stop-opacity="0.4"/><stop offset="1" stop-color="#fff" stop-opacity="0.5"/></linearGradient><linearGradient id="linear-gradient-6" x1="1092.73" y1="1128.96" x2="1142.9" y2="1128.96" gradientTransform="matrix(0, 4.21, -0.19, -0.02, 1538.17, -4084.38)" xlink:href="#linear-gradient-5"/></defs><title>election</title><path class="cls-1" d="M565,770.69V613.18S498,555.48,494.85,505.57c0,0,1.56-39,49.9-46.78V306s29.63-49.9,62.38,0V408.89s29.63-14,42.11,7.79c0,0,29.63-21.83,51.46,7.8,0,0,34.31-25,53,14V571.07s-1.56,25-21.83,37.43V770.69Z" transform="translate(-158 -19)"/><rect class="cls-2" x="573.53" y="613.17" width="254.98" height="49.12" transform="matrix(0, -1, 1, 0, -91.85, 1322.35)"/><rect class="cls-3" x="467.49" y="613.17" width="254.98" height="49.12" transform="translate(-198.32 1216.31) rotate(-90.23)"/><path class="cls-4" d="M845.73,770.69V491.54s-88.89-74.86-98.24-143.47c0,0-6.24-59.26,70.17-74.86V54.88s42.11-71.73,87.33,0v145s39-20.28,62.38,14c0,0,42.11-35.87,71.74,9.36,0,0,46.79-31.19,71.74,17.15l3.12,188.7s3.12,32.75-29.63,57.7V770.69Z" transform="translate(-158 -19)"/><rect class="cls-5" x="852.02" y="348.09" width="80.34" height="421.84" transform="translate(1625.13 1101) rotate(-179.87)"/><rect class="cls-6" x="998.61" y="348.09" width="80.34" height="421.84" transform="translate(1918.31 1101.33) rotate(-179.87)"/><rect class="cls-7" y="751.69" width="1596.92" height="169.98"/><rect class="cls-8" y="921.67" width="798.46" height="63.94"/><rect class="cls-9" x="798.46" y="690.87" width="798.46" height="60.82"/><ellipse class="cls-10" cx="806.63" cy="841.51" rx="209.85" ry="192.57"/><path class="cls-11" d="M927.82,670.25s28.76,59.57,53.11-2.49c0,0,13,67.18,52.29,9.8,0,0,3.69,70.85,50.45,23.19,0,0-14.33,67.69,42.87,35.67,0,0-32.35,68.8,32.13,48,0,0-58.36,51.52,15.81,56.82,0,0-67.58,28.45-4.24,61.62,0,0-62.74-2.53-22.88,53.48,0,0-53.59-24-37.57,43.62,0,0-49.9-39.92-45.91,30.32,0,0-39.64-57.35-51.44,17.63,0,0-24.55-67.81-52.36,4.9,0,0-16.35-74-52.22-7.23,0,0-1.35-73.8-50.47-20,0,0,20.69-83.15-44.35-32.42,0,0,43-67-35.38-45.65,0,0,54.59-57.59-22.88-55,0,0,83.07-29.06,2.22-60.59,0,0,79.65,10.55,20.84-59.84,0,0,82.13,28.38,39.47-49.3,0,0,70.83,59.81,49.43-33.28C866.74,689.58,916.41,761.11,927.82,670.25Z" transform="translate(-158 -19)"/><line class="cls-12" x1="810.84" y1="799.27" x2="811.46" y2="684.3"/><line class="cls-12" x1="634.35" y1="841.91" x2="977.88" y2="841.29"/><line class="cls-13" x1="810.84" y1="883.75" x2="810.84" y2="995.53"/><line class="cls-12" x1="823.05" y1="801.07" x2="845.79" y2="684.3"/><line class="cls-13" x1="834.42" y1="806.46" x2="881.11" y2="701.54"/><line class="cls-13" x1="843.98" y1="815.34" x2="907.31" y2="731.37"/><line class="cls-13" x1="851.91" y1="831.66" x2="959.45" y2="791.82"/><line class="cls-13" x1="848.2" y1="821.81" x2="942.43" y2="760.31"/><line class="cls-12" x1="825.08" y1="879.5" x2="848.56" y2="996.13"/><line class="cls-13" x1="836.42" y1="874.04" x2="883.77" y2="978.67"/><line class="cls-13" x1="845.92" y1="865.11" x2="909.78" y2="948.68"/><line class="cls-13" x1="853.75" y1="848.74" x2="961.54" y2="887.9"/><line class="cls-13" x1="850.1" y1="858.61" x2="944.72" y2="919.52"/><line class="cls-12" x1="802.16" y1="882.33" x2="773.79" y2="997.87"/><line class="cls-13" x1="791.07" y1="876.4" x2="739.34" y2="978.94"/><line class="cls-13" x1="781.95" y1="867.07" x2="714.62" y2="947.87"/><line class="cls-13" x1="774.82" y1="850.39" x2="665.48" y2="884.97"/><line class="cls-13" x1="778.05" y1="860.41" x2="680.95" y2="917.27"/><line class="cls-12" x1="769.48" y1="831.36" x2="655.1" y2="798.64"/><line class="cls-13" x1="775.83" y1="820.49" x2="675.32" y2="764.93"/><line class="cls-13" x1="785.5" y1="811.73" x2="707.3" y2="741.4"/><line class="cls-13" x1="802.44" y1="805.24" x2="772.01" y2="694.67"/><line class="cls-13" x1="792.31" y1="808.08" x2="739.15" y2="708.91"/><circle class="cls-14" cx="810.84" cy="841.51" r="42.24"/><path class="cls-15" d="M1184.14,709.87V611.62s-73.29-49.9-70.17-112.28c0,0,10.91-39,49.9-40.55V309.08s28.07-56.14,62.38,0V410.45s25-18.72,45.22,6.23c0,0,29.63-23.39,49.91,7.8,0,0,32.75-23.39,49.9,12.48V575.75s-1.56,21.83-20.27,32.75l-1.56,101.37Z" transform="translate(-158 -19)"/><rect class="cls-16" x="1189.22" y="502.46" width="49.12" height="202.09" transform="translate(2272.88 1181.27) rotate(179.68)"/><rect class="cls-17" x="1295.25" y="497.78" width="49.12" height="206.77" transform="translate(2484.93 1176) rotate(179.68)"/></svg>